<svg width="670" height="470" viewBox="0 0 670 470" fill="none" xmlns="http://www.w3.org/2000/svg">
<g clip-path="url(#clip0_1276_2)">
<g opacity="0.46">
<path d="M-310.238 412.543L474.111 -60.6758" stroke="#4F4F4F" stroke-width="16.3636"/>
<path d="M-339.211 387.773L445.138 -85.4453" stroke="#3E3E3E" stroke-width="48.2064"/>
<path d="M-366.629 350.625L417.72 -122.594" stroke="#252525" stroke-width="48.2064"/>
<path d="M-135.984 453.66L648.364 -19.5586" stroke="#4F4F4F" stroke-width="16.3636"/>
<path d="M-164.957 428.891L619.392 -44.3281" stroke="#3E3E3E" stroke-width="48.2064"/>
<path d="M-83.1367 467.375L701.212 -5.84375" stroke="#3E3E3E" stroke-width="48.2064"/>
<path d="M-192.375 391.742L591.974 -81.4766" stroke="#252525" stroke-width="48.2064"/>
<path d="M781.707 137.012L-2.64176 610.23" stroke="#4F4F4F" stroke-width="16.3636"/>
<path d="M810.676 161.781L26.327 635" stroke="#3E3E3E" stroke-width="48.2064"/>
<path d="M838.094 198.93L53.745 672.148" stroke="#252525" stroke-width="48.2064"/>
<path d="M-107.684 14.9532L676.665 488.172" stroke="#4F4F4F" stroke-width="16.3636"/>
<path d="M-135.766 39.7189L648.583 512.938" stroke="#3E3E3E" stroke-width="48.2064"/>
<path d="M-164.07 76.8673L620.278 550.086" stroke="#252525" stroke-width="48.2064"/>
<path d="M-237.266 83.0548L547.083 556.273" stroke="#4F4F4F" stroke-width="16.3636"/>
<path d="M-265.352 107.82L518.997 581.039" stroke="#3E3E3E" stroke-width="48.2064"/>
<path d="M-293.656 144.969L490.693 618.188" stroke="#252525" stroke-width="48.2064"/>
<path d="M74.9766 -278.707L859.325 194.512" stroke="#4F4F4F" stroke-width="16.3636"/>
<path d="M46.8945 -253.941L831.243 219.277" stroke="#3E3E3E" stroke-width="48.2064"/>
<path d="M2.22266 -183.625L786.571 289.594" stroke="#3E3E3E" stroke-width="48.2064"/>
<path d="M18.5898 -216.789L802.939 256.43" stroke="#252525" stroke-width="48.2064"/>
<path d="M-19.6758 -153.558L764.673 319.66" stroke="#4F4F4F" stroke-width="16.3636"/>
<path d="M-47.7695 -128.793L736.579 344.426" stroke="#3E3E3E" stroke-width="48.2064"/>
<path d="M-76.0703 -91.6405L708.278 381.578" stroke="#252525" stroke-width="48.2064"/>
<path d="M-114.547 -60.6796L669.802 412.539" stroke="#252525" stroke-width="48.2064"/>
</g>
</g>
<defs>
<clipPath id="clip0_1276_2">
<rect width="670" height="470" fill="white"/>
</clipPath>
</defs>
</svg>
