<svg width="904" height="686" viewBox="0 0 904 686" fill="none" xmlns="http://www.w3.org/2000/svg">
<g clip-path="url(#clip0_1287_548)">
<g opacity="0.46">
<path d="M-533.883 605.376L617.024 -88.9961" stroke="#4F4F4F" stroke-width="24.011"/>
<path d="M-576.402 569.029L574.504 -125.344" stroke="#3E3E3E" stroke-width="70.7352"/>
<path d="M-616.629 514.521L534.277 -179.852" stroke="#252525" stroke-width="70.7352"/>
<path d="M-278.188 665.712L872.719 -28.6602" stroke="#4F4F4F" stroke-width="24.011"/>
<path d="M-320.707 629.365L830.199 -65.0078" stroke="#3E3E3E" stroke-width="70.7352"/>
<path d="M-200.648 685.834L950.258 -8.53906" stroke="#3E3E3E" stroke-width="70.7352"/>
<path d="M-360.938 574.857L789.969 -119.516" stroke="#252525" stroke-width="70.7352"/>
<path d="M1068.37 201.081L-82.5352 895.453" stroke="#4F4F4F" stroke-width="24.011"/>
<path d="M1110.88 237.428L-40.0274 931.801" stroke="#3E3E3E" stroke-width="70.7352"/>
<path d="M1151.11 291.936L0.203032 986.309" stroke="#252525" stroke-width="70.7352"/>
<path d="M-236.672 21.9829L914.234 716.355" stroke="#4F4F4F" stroke-width="24.011"/>
<path d="M-277.883 58.3227L873.024 752.695" stroke="#3E3E3E" stroke-width="70.7352"/>
<path d="M-319.41 112.831L831.496 807.203" stroke="#252525" stroke-width="70.7352"/>
<path d="M-426.801 121.909L724.106 816.281" stroke="#4F4F4F" stroke-width="24.011"/>
<path d="M-468.016 158.249L682.891 852.621" stroke="#3E3E3E" stroke-width="70.7352"/>
<path d="M-509.547 212.756L641.359 907.129" stroke="#252525" stroke-width="70.7352"/>
<path d="M31.3633 -408.916L1182.27 285.457" stroke="#4F4F4F" stroke-width="24.011"/>
<path d="M-9.84766 -372.576L1141.06 321.797" stroke="#3E3E3E" stroke-width="70.7352"/>
<path d="M-75.3984 -269.4L1075.51 424.973" stroke="#3E3E3E" stroke-width="70.7352"/>
<path d="M-51.3828 -318.064L1099.52 376.309" stroke="#252525" stroke-width="70.7352"/>
<path d="M-107.531 -225.287L1043.38 469.086" stroke="#4F4F4F" stroke-width="24.011"/>
<path d="M-148.754 -188.947L1002.15 505.426" stroke="#3E3E3E" stroke-width="70.7352"/>
<path d="M-190.285 -134.431L960.621 559.941" stroke="#252525" stroke-width="70.7352"/>
<path d="M-246.738 -89.0015L904.168 605.371" stroke="#252525" stroke-width="70.7352"/>
</g>
</g>
<defs>
<clipPath id="clip0_1287_548">
<rect width="904" height="686" fill="white"/>
</clipPath>
</defs>
</svg>
