<svg width="562" height="547" viewBox="0 0 562 547" fill="none" xmlns="http://www.w3.org/2000/svg">
<g clip-path="url(#clip0_1304_80)">
<rect x="0.605469" y="412.594" width="571.843" height="134.447" fill="#595959"/>
<g filter="url(#filter0_d_1304_80)">
<rect x="0.605469" y="412.594" width="571.843" height="19.9017" fill="#3E3E3E"/>
<rect x="0.605469" y="412.594" width="571.843" height="19.9017" stroke="white" stroke-width="1.76904"/>
</g>
<rect x="-18.4141" y="-68.1406" width="590.86" height="167.174" fill="#595959"/>
<path d="M79.4307 475.965C79.4307 476.801 79.7396 477.528 80.3575 478.146C80.9754 478.764 81.7023 479.072 82.5383 479.072H95.2416V470.077H90.9345V463.534H106.091V470.077H101.784V489.813H106.146V496.355H90.9345V489.813H95.2416V485.07H82.5383C81.2298 485.07 79.994 484.852 78.8309 484.415C77.6678 483.943 76.6319 483.307 75.7233 482.507C74.8509 481.671 74.1603 480.708 73.6515 479.618C73.1426 478.491 72.8882 477.273 72.8882 475.965V470.077H68.5811V463.534H83.7378V470.077H79.4307V475.965ZM116.619 482.344C116.873 483.543 117.327 484.634 117.982 485.615C118.672 486.56 119.508 487.378 120.49 488.068C121.471 488.759 122.58 489.286 123.815 489.649C125.088 490.013 126.432 490.195 127.85 490.195C130.212 490.195 132.248 489.831 133.956 489.104C135.665 488.377 137.028 487.523 138.045 486.542L142.789 491.34C141.08 492.939 138.954 494.266 136.41 495.32C133.865 496.337 131.012 496.846 127.85 496.846C125.451 496.846 123.143 496.446 120.926 495.647C118.709 494.847 116.746 493.72 115.038 492.266C113.329 490.776 111.966 488.995 110.949 486.923C109.931 484.815 109.422 482.471 109.422 479.89C109.422 477.237 109.895 474.856 110.84 472.748C111.821 470.64 113.129 468.859 114.765 467.405C116.401 465.951 118.291 464.843 120.435 464.079C122.616 463.316 124.906 462.934 127.305 462.934C129.631 462.934 131.83 463.316 133.902 464.079C135.973 464.806 137.791 465.842 139.354 467.187C140.917 468.532 142.152 470.131 143.061 471.985C144.006 473.839 144.479 475.874 144.479 478.091L144.206 482.344H116.619ZM127.305 469.586C124.688 469.586 122.471 470.204 120.653 471.44C118.836 472.639 117.582 474.275 116.891 476.346H137.227C136.646 474.275 135.519 472.639 133.847 471.44C132.212 470.204 130.031 469.586 127.305 469.586ZM161.433 508.241H145.676V501.698H149.983V470.077H145.676V463.534H155.436L155.817 465.933C156.908 465.206 158.343 464.534 160.124 463.916C161.942 463.262 164.05 462.934 166.449 462.934C168.375 462.934 170.301 463.316 172.228 464.079C174.154 464.843 175.881 465.951 177.407 467.405C178.934 468.859 180.17 470.64 181.115 472.748C182.096 474.856 182.587 477.237 182.587 479.89C182.587 482.471 182.096 484.815 181.115 486.923C180.133 488.995 178.807 490.776 177.135 492.266C175.463 493.72 173.518 494.847 171.301 495.647C169.084 496.446 166.739 496.846 164.268 496.846C162.996 496.846 161.687 496.646 160.342 496.246C158.998 495.81 157.725 495.283 156.526 494.665V501.698H161.433V508.241ZM164.268 490.195C166.013 490.195 167.575 489.958 168.957 489.486C170.374 488.977 171.574 488.268 172.555 487.36C173.573 486.451 174.354 485.361 174.899 484.088C175.445 482.816 175.717 481.417 175.717 479.89C175.717 478.364 175.445 476.964 174.899 475.692C174.354 474.42 173.573 473.348 172.555 472.476C171.574 471.567 170.374 470.858 168.957 470.349C167.575 469.84 166.013 469.586 164.268 469.586C162.814 469.586 161.415 469.822 160.07 470.295C158.761 470.767 157.58 471.385 156.526 472.148V487.305C157.58 488.141 158.779 488.832 160.124 489.377C161.469 489.922 162.85 490.195 164.268 490.195ZM223.492 496.355H212.588V482.344H196.777V489.813H201.139V496.355H185.928V489.813H190.235V470.077H185.928V463.534H196.777V476.346H212.588V470.077H208.281V463.534H223.438V470.077H219.131V489.813H223.492V496.355ZM225.118 479.89C225.118 477.237 225.627 474.856 226.645 472.748C227.662 470.64 229.025 468.859 230.734 467.405C232.442 465.951 234.405 464.843 236.622 464.079C238.839 463.316 241.147 462.934 243.546 462.934C246.018 462.934 248.362 463.316 250.579 464.079C252.796 464.843 254.741 465.951 256.413 467.405C258.085 468.859 259.412 470.64 260.393 472.748C261.374 474.856 261.865 477.237 261.865 479.89C261.865 482.471 261.374 484.815 260.393 486.923C259.412 488.995 258.085 490.776 256.413 492.266C254.741 493.72 252.796 494.847 250.579 495.647C248.362 496.446 246.018 496.846 243.546 496.846C241.147 496.846 238.839 496.446 236.622 495.647C234.405 494.847 232.442 493.72 230.734 492.266C229.025 490.776 227.662 488.995 226.645 486.923C225.627 484.815 225.118 482.471 225.118 479.89ZM243.546 469.586C241.91 469.586 240.384 469.84 238.966 470.349C237.549 470.858 236.331 471.567 235.313 472.476C234.296 473.348 233.496 474.42 232.915 475.692C232.333 476.964 232.042 478.364 232.042 479.89C232.042 481.417 232.333 482.816 232.915 484.088C233.496 485.361 234.296 486.451 235.313 487.36C236.331 488.268 237.549 488.977 238.966 489.486C240.384 489.958 241.91 490.195 243.546 490.195C245.291 490.195 246.854 489.958 248.235 489.486C249.652 488.977 250.852 488.268 251.833 487.36C252.851 486.451 253.632 485.361 254.178 484.088C254.723 482.816 254.995 481.417 254.995 479.89C254.995 478.364 254.723 476.964 254.178 475.692C253.632 474.42 252.851 473.348 251.833 472.476C250.852 471.567 249.652 470.858 248.235 470.349C246.854 469.84 245.291 469.586 243.546 469.586ZM266.787 481.799V475.801H284.234V481.799H266.787ZM302.092 459.554C303.218 459.263 304.327 459.045 305.417 458.9C306.508 458.718 307.544 458.573 308.525 458.464C309.543 458.318 310.488 458.191 311.36 458.082C312.269 457.937 313.087 457.755 313.814 457.537L314.032 455.465H319.484V462.28C319.302 462.389 319.102 462.498 318.884 462.607C318.484 462.789 317.884 462.989 317.085 463.207C316.431 463.389 315.576 463.552 314.522 463.698C313.505 463.807 312.36 463.952 311.088 464.134C309.852 464.279 308.543 464.461 307.162 464.679C305.817 464.861 304.491 465.115 303.182 465.442C301.801 465.77 300.601 466.26 299.584 466.914C298.602 467.569 297.785 468.259 297.13 468.986C296.476 469.677 295.985 470.367 295.658 471.058C295.367 471.712 295.222 472.239 295.222 472.639C295.586 472.094 296.149 471.512 296.912 470.894C297.675 470.24 298.584 469.622 299.638 469.041C300.729 468.459 301.928 467.987 303.237 467.623C304.581 467.223 306.017 467.023 307.544 467.023C309.87 467.023 312.014 467.351 313.977 468.005C315.976 468.623 317.684 469.55 319.102 470.785C320.556 472.021 321.683 473.548 322.482 475.365C323.282 477.146 323.682 479.2 323.682 481.526C323.682 483.816 323.227 485.906 322.319 487.796C321.41 489.686 320.192 491.303 318.666 492.648C317.139 493.993 315.358 495.029 313.323 495.756C311.324 496.483 309.216 496.846 306.998 496.846C304.6 496.846 302.292 496.465 300.074 495.701C297.857 494.902 295.894 493.775 294.186 492.321C292.478 490.831 291.115 489.013 290.097 486.869C289.079 484.688 288.571 482.198 288.571 479.4C288.571 473.984 289.643 469.622 291.787 466.315C293.968 463.007 297.403 460.754 302.092 459.554ZM306.998 473.239C305.472 473.239 304.018 473.493 302.637 474.002C301.256 474.475 300.038 475.093 298.984 475.856C297.93 476.619 297.076 477.455 296.422 478.364C295.804 479.272 295.495 480.145 295.495 480.981C295.495 482.507 295.785 483.852 296.367 485.015C296.949 486.178 297.748 487.142 298.766 487.905C299.784 488.668 301.001 489.25 302.419 489.649C303.836 490.013 305.363 490.195 306.998 490.195C308.452 490.195 309.779 489.977 310.978 489.54C312.178 489.104 313.214 488.505 314.086 487.741C314.958 486.978 315.631 486.069 316.103 485.015C316.576 483.961 316.812 482.798 316.812 481.526C316.812 480.326 316.558 479.218 316.049 478.2C315.54 477.182 314.849 476.31 313.977 475.583C313.105 474.82 312.069 474.238 310.869 473.839C309.67 473.439 308.38 473.239 306.998 473.239ZM333.742 482.344C333.996 483.543 334.451 484.634 335.105 485.615C335.796 486.56 336.632 487.378 337.613 488.068C338.594 488.759 339.703 489.286 340.939 489.649C342.211 490.013 343.556 490.195 344.973 490.195C347.336 490.195 349.371 489.831 351.08 489.104C352.788 488.377 354.151 487.523 355.169 486.542L359.912 491.34C358.204 492.939 356.077 494.266 353.533 495.32C350.989 496.337 348.135 496.846 344.973 496.846C342.574 496.846 340.266 496.446 338.049 495.647C335.832 494.847 333.869 493.72 332.161 492.266C330.453 490.776 329.09 488.995 328.072 486.923C327.054 484.815 326.545 482.471 326.545 479.89C326.545 477.237 327.018 474.856 327.963 472.748C328.944 470.64 330.253 468.859 331.888 467.405C333.524 465.951 335.414 464.843 337.558 464.079C339.739 463.316 342.029 462.934 344.428 462.934C346.754 462.934 348.953 463.316 351.025 464.079C353.097 464.806 354.914 465.842 356.477 467.187C358.04 468.532 359.276 470.131 360.184 471.985C361.129 473.839 361.602 475.874 361.602 478.091L361.329 482.344H333.742ZM344.428 469.586C341.811 469.586 339.594 470.204 337.777 471.44C335.959 472.639 334.705 474.275 334.015 476.346H354.351C353.769 474.275 352.642 472.639 350.97 471.44C349.335 470.204 347.154 469.586 344.428 469.586ZM367.61 470.077V463.534H395.252V489.813H399.559V496.355H384.893V489.813H388.71V470.077H378.841L372.79 496.355H362.267V489.813H367.447L371.808 470.077H367.61ZM417.398 470.077H413.581V474.82H425.903C427.393 474.82 428.792 475.111 430.101 475.692C431.409 476.237 432.536 477.001 433.481 477.982C434.463 478.927 435.226 480.054 435.771 481.362C436.353 482.671 436.643 484.07 436.643 485.56C436.643 487.123 436.316 488.577 435.662 489.922C435.044 491.231 434.208 492.357 433.154 493.302C432.136 494.247 430.955 494.992 429.61 495.538C428.302 496.083 426.975 496.355 425.63 496.355H402.732V489.813H407.039V470.077H402.732V463.534H417.398V470.077ZM453.381 470.077H449.565V489.813H453.327V496.355H438.715V489.813H443.022V470.077H438.715V463.534H453.381V470.077ZM413.581 489.813H425.14C426.339 489.813 427.357 489.395 428.193 488.559C429.029 487.687 429.447 486.633 429.447 485.397C429.447 484.197 429.029 483.18 428.193 482.344C427.357 481.508 426.339 481.09 425.14 481.09H413.581V489.813ZM476.23 455.738C478.011 455.738 479.52 455.592 480.755 455.302C481.991 454.974 483.245 454.593 484.517 454.157L486.208 456.992C485.044 458.046 483.591 458.864 481.846 459.445C480.138 460.027 478.266 460.317 476.23 460.317C474.195 460.317 472.305 460.027 470.56 459.445C468.852 458.864 467.416 458.046 466.253 456.992L467.943 454.157C468.597 454.375 469.215 454.593 469.797 454.811C470.415 454.993 471.051 455.156 471.705 455.302C472.359 455.411 473.05 455.52 473.777 455.629C474.504 455.701 475.322 455.738 476.23 455.738ZM494.604 470.077H490.242V489.813H494.604V496.355H479.392V489.813H483.7V470.077H481.41L474.595 496.355H461.346V470.077H457.039V463.534H467.889V489.813H470.069L476.994 463.534H494.604V470.077Z" fill="#AAAAAA"/>
<path d="M253.088 66.3313V61.4244H268.899V66.3313H253.088ZM209.581 68.4575H213.834V41.0883H209.581V34.5458H225.992L240.821 68.4575H242.402V34.5458H253.252V41.0883H248.945V75H236.841L222.012 41.0883H220.376V75H209.581V68.4575ZM252.652 50.4113C252.652 49.2118 252.87 48.1396 253.306 47.1946C253.779 46.2496 254.397 45.4499 255.16 44.7957C255.923 44.1051 256.796 43.5962 257.777 43.2691C258.795 42.9056 259.849 42.7239 260.939 42.7239C262.066 42.7239 263.12 42.9056 264.102 43.2691C265.119 43.5962 266.01 44.1051 266.773 44.7957C267.536 45.4499 268.136 46.2496 268.572 47.1946C269.008 48.1396 269.226 49.2118 269.226 50.4113C269.226 51.5744 269.008 52.6285 268.572 53.5735C268.136 54.5185 267.536 55.3181 266.773 55.9724C266.01 56.6266 265.119 57.1355 264.102 57.4989C263.12 57.8624 262.066 58.0441 260.939 58.0441C259.849 58.0441 258.795 57.8624 257.777 57.4989C256.796 57.1355 255.923 56.6266 255.16 55.9724C254.397 55.3181 253.779 54.5185 253.306 53.5735C252.87 52.6285 252.652 51.5744 252.652 50.4113ZM260.939 47.031C259.885 47.031 258.995 47.34 258.268 47.9579C257.577 48.5758 257.232 49.3936 257.232 50.4113C257.232 51.429 257.577 52.2468 258.268 52.8647C258.995 53.4826 259.885 53.7916 260.939 53.7916C262.102 53.7916 263.011 53.4826 263.665 52.8647C264.356 52.2468 264.701 51.429 264.701 50.4113C264.701 49.3936 264.356 48.5758 263.665 47.9579C263.011 47.34 262.102 47.031 260.939 47.031ZM311.103 75H273.756V68.4575C273.756 66.6039 274.102 64.8955 274.792 63.3326C275.483 61.7334 276.573 60.2431 278.063 58.862C279.59 57.4808 281.516 56.1905 283.843 54.991C286.169 53.7552 288.968 52.5921 292.239 51.5017C294.819 50.6294 296.837 49.957 298.291 49.4844C299.744 48.9756 300.817 48.5212 301.507 48.1214C302.234 47.7216 302.67 47.3218 302.816 46.922C302.961 46.5222 303.034 45.9951 303.034 45.3409C303.034 44.4322 302.761 43.6871 302.216 43.1055C301.707 42.524 300.98 42.0878 300.035 41.7971C299.126 41.5063 298.054 41.3064 296.818 41.1973C295.619 41.0883 294.311 41.0338 292.893 41.0338C291.403 41.0338 289.913 41.1973 288.422 41.5245C286.968 41.8152 285.569 42.2332 284.224 42.7784C282.916 43.3236 281.716 43.9779 280.626 44.7412C279.572 45.4681 278.718 46.2677 278.063 47.1401L273.211 42.7239C274.229 41.4518 275.483 40.3068 276.973 39.2891C278.5 38.2714 280.135 37.4173 281.88 36.7267C283.625 35.9997 285.442 35.4545 287.332 35.091C289.222 34.6912 291.076 34.4913 292.893 34.4913C295.401 34.4913 297.727 34.6731 299.872 35.0365C302.016 35.3636 303.87 35.9634 305.433 36.8357C306.996 37.6717 308.213 38.7984 309.086 40.216C309.958 41.5972 310.394 43.3236 310.394 45.3954C310.394 47.1037 310.012 48.5394 309.249 49.7025C308.486 50.8293 307.432 51.8288 306.087 52.7011C304.742 53.5735 303.125 54.3731 301.235 55.1C299.345 55.7906 297.291 56.5176 295.074 57.2809C292.202 58.2986 289.803 59.3163 287.877 60.334C285.987 61.3517 284.479 62.3513 283.352 63.3326C282.225 64.2776 281.426 65.2045 280.953 66.1132C280.517 66.9855 280.299 67.767 280.299 68.4575H304.56L305.106 63.6052H311.103V75ZM314.014 58.0441L344.6 34.5458H349.616V58.0441H354.087V64.5866H349.616V68.4575H353.923V75H338.766V68.4575H343.074V64.5866H314.014V58.0441ZM343.074 44.196L324.155 58.0441H343.074V44.196Z" fill="#AAAAAA"/>
</g>
<defs>
<filter id="filter0_d_1304_80" x="-9.74172" y="407.554" width="592.538" height="40.5967" filterUnits="userSpaceOnUse" color-interpolation-filters="sRGB">
<feFlood flood-opacity="0" result="BackgroundImageFix"/>
<feColorMatrix in="SourceAlpha" type="matrix" values="0 0 0 0 0 0 0 0 0 0 0 0 0 0 0 0 0 0 127 0" result="hardAlpha"/>
<feOffset dy="5.30713"/>
<feGaussianBlur stdDeviation="4.73219"/>
<feComposite in2="hardAlpha" operator="out"/>
<feColorMatrix type="matrix" values="0 0 0 0 0 0 0 0 0 0 0 0 0 0 0 0 0 0 0.56 0"/>
<feBlend mode="normal" in2="BackgroundImageFix" result="effect1_dropShadow_1304_80"/>
<feBlend mode="normal" in="SourceGraphic" in2="effect1_dropShadow_1304_80" result="shape"/>
</filter>
<clipPath id="clip0_1304_80">
<rect width="576" height="547" fill="white" transform="translate(-14)"/>
</clipPath>
</defs>
</svg>
