<svg width="518" height="629" viewBox="0 0 518 629" fill="none" xmlns="http://www.w3.org/2000/svg">
<g clip-path="url(#clip0_1339_2)">
<g filter="url(#filter0_d_1339_2)">
<path d="M206.775 285.386C129.142 298.505 116.532 370.852 119.93 405.386C117.686 437.107 122.506 446.433 125.197 447.131C184.042 464.032 313.488 474.847 360.515 382.901C407.542 290.955 356.265 270.349 324.748 271.539C317.77 270.689 284.408 272.267 206.775 285.386Z" fill="white"/>
<path d="M206.775 285.386C129.142 298.505 116.532 370.852 119.93 405.386C117.686 437.107 122.506 446.433 125.197 447.131C184.042 464.032 313.488 474.847 360.515 382.901C407.542 290.955 356.265 270.349 324.748 271.539C317.77 270.689 284.408 272.267 206.775 285.386Z" stroke="white" stroke-width="6.56676" stroke-linecap="round"/>
</g>
<g filter="url(#filter1_d_1339_2)">
<path d="M229.142 158.75L228.085 144.878C228.077 144.774 227.993 144.692 227.889 144.688C218.798 144.383 207.254 144.117 196.064 144.095C181.113 144.066 167.672 144.486 161.241 145.619C157.284 146.316 155.047 148.44 153.559 152.123C151.882 156.271 151.399 162.091 151.944 168.505C152.292 172.603 154.153 176.607 157.168 180.916C165.044 192.176 174.037 192.342 189.867 193.91C190.08 193.918 190.143 194.204 189.953 194.299L167.292 204.97L166.562 205.32C166.526 205.338 166.485 205.344 166.445 205.338C163.357 204.913 160.585 204.41 158.26 203.812L157.147 203.526C157.129 203.522 157.111 203.514 157.095 203.504L156.103 202.924C152.206 200.646 147.446 196.219 143.536 190.857C139.585 185.439 135.831 178.153 135.133 169.933C134.485 162.302 134.824 153.453 137.917 145.801C141.198 137.684 147.677 130.877 158.314 129.004C166.476 127.566 181.453 127.196 196.097 127.224C211.03 127.253 226.531 127.709 236.268 128.121L238.967 128.235C239.098 128.241 239.194 128.356 239.16 128.482C237.754 133.736 232.126 151.496 229.534 158.811C229.46 159.019 229.159 158.971 229.142 158.75Z" fill="#19E3FF"/>
<path d="M217.386 192.311C209.565 191.087 188.95 202.192 178.05 208.827C177.362 209.247 177.511 210.286 178.281 210.526C197.637 216.562 226.277 234.986 238.553 243.727L245.169 248.321L245.235 248.37L245.303 248.319L251.827 243.616C263.925 234.631 292.19 215.638 311.422 209.215C312.186 208.96 312.315 207.918 311.618 207.514C300.587 201.097 279.754 190.407 271.959 191.786C264.324 193.137 249.691 158.761 244.731 143.669C244.318 142.439 243.835 143.149 243.645 143.658C238.989 158.846 225.047 193.508 217.386 192.311Z" fill="#19E3FF"/>
<path d="M260.096 158.427L260.874 144.537C260.88 144.432 260.963 144.349 261.068 144.343C270.15 143.856 281.687 143.359 292.874 143.113C307.821 142.785 321.269 142.935 327.721 143.939C331.69 144.557 333.969 146.636 335.531 150.288C337.291 154.402 337.89 160.211 337.473 166.634C337.208 170.738 335.427 174.779 332.499 179.147C324.851 190.562 315.862 190.909 300.067 192.793C299.855 192.805 299.797 193.093 299.99 193.184L322.86 203.4L323.596 203.735C323.633 203.751 323.673 203.756 323.712 203.75C326.792 203.264 329.555 202.706 331.866 202.06L332.973 201.752C332.991 201.747 333.008 201.74 333.025 201.729L334.005 201.13C337.854 198.774 342.525 194.252 346.328 188.813C350.17 183.317 353.776 175.958 354.31 167.725C354.805 160.083 354.289 151.243 351.043 143.654C347.601 135.604 340.987 128.928 330.314 127.268C322.125 125.994 307.144 125.924 292.503 126.246C277.573 126.574 262.085 127.339 252.358 127.947L249.662 128.115C249.531 128.123 249.438 128.24 249.474 128.366C250.985 133.59 256.967 151.234 259.705 158.495C259.783 158.702 260.083 158.648 260.096 158.427Z" fill="#19E3FF"/>
<path d="M141.271 101.544L231.082 83.2944L253.723 119.819L349.926 88.5055" stroke="#19E3FF" stroke-width="16.8715" stroke-linecap="round"/>
</g>
</g>
<defs>
<filter id="filter0_d_1339_2" x="-0.248082" y="151.31" width="487.857" height="414.853" filterUnits="userSpaceOnUse" color-interpolation-filters="sRGB">
<feFlood flood-opacity="0" result="BackgroundImageFix"/>
<feColorMatrix in="SourceAlpha" type="matrix" values="0 0 0 0 0 0 0 0 0 0 0 0 0 0 0 0 0 0 127 0" result="hardAlpha"/>
<feOffset dx="-5.74939" dy="-6.19165"/>
<feGaussianBlur stdDeviation="55.2826"/>
<feColorMatrix type="matrix" values="0 0 0 0 0.096667 0 0 0 0 0.8916 0 0 0 0 1 0 0 0 1 0"/>
<feBlend mode="normal" in2="BackgroundImageFix" result="effect1_dropShadow_1339_2"/>
<feBlend mode="normal" in="SourceGraphic" in2="effect1_dropShadow_1339_2" result="shape"/>
</filter>
<filter id="filter1_d_1339_2" x="16.5175" y="-42.8974" width="446.662" height="395.642" filterUnits="userSpaceOnUse" color-interpolation-filters="sRGB">
<feFlood flood-opacity="0" result="BackgroundImageFix"/>
<feColorMatrix in="SourceAlpha" type="matrix" values="0 0 0 0 0 0 0 0 0 0 0 0 0 0 0 0 0 0 127 0" result="hardAlpha"/>
<feOffset dx="-5.74939" dy="-6.19165"/>
<feGaussianBlur stdDeviation="55.2826"/>
<feColorMatrix type="matrix" values="0 0 0 0 0.096667 0 0 0 0 0.8916 0 0 0 0 1 0 0 0 1 0"/>
<feBlend mode="normal" in2="BackgroundImageFix" result="effect1_dropShadow_1339_2"/>
<feBlend mode="normal" in="SourceGraphic" in2="effect1_dropShadow_1339_2" result="shape"/>
</filter>
<clipPath id="clip0_1339_2">
<rect width="518" height="629" fill="white"/>
</clipPath>
</defs>
</svg>
