<svg width="241" height="242" viewBox="0 0 241 242" fill="none" xmlns="http://www.w3.org/2000/svg">
<g clip-path="url(#clip0_1340_16)">
<mask id="path-1-inside-1_1340_16" fill="white">
<rect x="14.3984" y="108.766" width="210.958" height="112.334" rx="1.76904"/>
</mask>
<rect x="14.3984" y="108.766" width="210.958" height="112.334" rx="1.76904" fill="#161616" stroke="#454545" stroke-width="13.2678" mask="url(#path-1-inside-1_1340_16)"/>
<rect x="20.1484" y="194.562" width="198.575" height="21.6708" fill="#6C6C6C"/>
<path d="M74.1054 198.449V211.336H71.771V200.721H71.6955L68.6815 202.646V200.507L71.8843 198.449H74.1054ZM77.8494 211.336L83.33 200.488V200.4H76.9684V198.449H85.7462V200.444L80.2719 211.336H77.8494ZM88.5998 209.788C88.218 209.788 87.8908 209.654 87.6182 209.385C87.3455 209.113 87.2113 208.785 87.2155 208.404C87.2113 208.026 87.3455 207.703 87.6182 207.435C87.8908 207.166 88.218 207.032 88.5998 207.032C88.9689 207.032 89.2898 207.166 89.5625 207.435C89.8394 207.703 89.9799 208.026 89.9841 208.404C89.9799 208.66 89.9128 208.892 89.7827 209.102C89.6569 209.312 89.4891 209.48 89.2793 209.606C89.0738 209.727 88.8473 209.788 88.5998 209.788ZM88.5998 203.401C88.218 203.401 87.8908 203.267 87.6182 202.999C87.3455 202.726 87.2113 202.399 87.2155 202.017C87.2113 201.639 87.3455 201.316 87.6182 201.048C87.8908 200.775 88.218 200.639 88.5998 200.639C88.9689 200.639 89.2898 200.775 89.5625 201.048C89.8394 201.316 89.9799 201.639 89.9841 202.017C89.9799 202.269 89.9128 202.499 89.7827 202.709C89.6569 202.919 89.4891 203.087 89.2793 203.213C89.0738 203.338 88.8473 203.401 88.5998 203.401ZM97.0739 211.581C96.0378 211.581 95.1485 211.319 94.406 210.795C93.6677 210.266 93.0993 209.505 92.7008 208.511C92.3065 207.512 92.1093 206.31 92.1093 204.905C92.1135 203.5 92.3128 202.304 92.7071 201.319C93.1056 200.329 93.674 199.574 94.4123 199.053C95.1548 198.533 96.042 198.273 97.0739 198.273C98.1059 198.273 98.9931 198.533 99.7356 199.053C100.478 199.574 101.046 200.329 101.441 201.319C101.839 202.309 102.039 203.504 102.039 204.905C102.039 206.315 101.839 207.519 101.441 208.517C101.046 209.511 100.478 210.27 99.7356 210.795C98.9973 211.319 98.1101 211.581 97.0739 211.581ZM97.0739 209.612C97.8793 209.612 98.5149 209.215 98.9805 208.423C99.4503 207.626 99.6852 206.453 99.6852 204.905C99.6852 203.882 99.5783 203.022 99.3643 202.325C99.1504 201.629 98.8484 201.105 98.4582 200.752C98.0681 200.396 97.6067 200.217 97.0739 200.217C96.2727 200.217 95.6393 200.616 95.1737 201.413C94.708 202.206 94.4731 203.37 94.4689 204.905C94.4647 205.933 94.5675 206.797 94.7772 207.498C94.9912 208.198 95.2932 208.727 95.6833 209.083C96.0735 209.436 96.537 209.612 97.0739 209.612ZM108.892 211.581C107.856 211.581 106.967 211.319 106.225 210.795C105.486 210.266 104.918 209.505 104.519 208.511C104.125 207.512 103.928 206.31 103.928 204.905C103.932 203.5 104.131 202.304 104.526 201.319C104.924 200.329 105.493 199.574 106.231 199.053C106.973 198.533 107.861 198.273 108.892 198.273C109.924 198.273 110.812 198.533 111.554 199.053C112.297 199.574 112.865 200.329 113.259 201.319C113.658 202.309 113.857 203.504 113.857 204.905C113.857 206.315 113.658 207.519 113.259 208.517C112.865 209.511 112.297 210.27 111.554 210.795C110.816 211.319 109.929 211.581 108.892 211.581ZM108.892 209.612C109.698 209.612 110.333 209.215 110.799 208.423C111.269 207.626 111.504 206.453 111.504 204.905C111.504 203.882 111.397 203.022 111.183 202.325C110.969 201.629 110.667 201.105 110.277 200.752C109.887 200.396 109.425 200.217 108.892 200.217C108.091 200.217 107.458 200.616 106.992 201.413C106.527 202.206 106.292 203.37 106.287 204.905C106.283 205.933 106.386 206.797 106.596 207.498C106.81 208.198 107.112 208.727 107.502 209.083C107.892 209.436 108.356 209.612 108.892 209.612ZM121.831 203.955V205.83H116.03V203.955H121.831ZM129.443 198.449V211.336H127.109V200.721H127.033L124.019 202.646V200.507L127.222 198.449H129.443ZM137.296 211.512C136.36 211.512 135.53 211.355 134.804 211.04C134.083 210.726 133.516 210.296 133.105 209.75C132.698 209.201 132.497 208.578 132.501 207.881C132.497 207.34 132.614 206.843 132.854 206.39C133.093 205.937 133.416 205.56 133.823 205.258C134.234 204.951 134.691 204.756 135.194 204.672V204.584C134.532 204.437 133.995 204.1 133.583 203.571C133.177 203.038 132.975 202.424 132.979 201.728C132.975 201.065 133.16 200.473 133.533 199.953C133.906 199.433 134.418 199.024 135.068 198.726C135.719 198.424 136.461 198.273 137.296 198.273C138.122 198.273 138.859 198.424 139.505 198.726C140.155 199.024 140.667 199.433 141.04 199.953C141.417 200.473 141.606 201.065 141.606 201.728C141.606 202.424 141.399 203.038 140.983 203.571C140.572 204.1 140.041 204.437 139.391 204.584V204.672C139.895 204.756 140.348 204.951 140.75 205.258C141.157 205.56 141.48 205.937 141.719 206.39C141.963 206.843 142.084 207.34 142.084 207.881C142.084 208.578 141.879 209.201 141.468 209.75C141.057 210.296 140.49 210.726 139.769 211.04C139.051 211.355 138.227 211.512 137.296 211.512ZM137.296 209.713C137.778 209.713 138.198 209.631 138.554 209.467C138.911 209.299 139.188 209.064 139.385 208.762C139.582 208.46 139.683 208.112 139.687 207.718C139.683 207.307 139.576 206.944 139.366 206.629C139.161 206.31 138.877 206.061 138.517 205.881C138.16 205.7 137.753 205.61 137.296 205.61C136.834 205.61 136.423 205.7 136.063 205.881C135.702 206.061 135.417 206.31 135.207 206.629C135.001 206.944 134.901 207.307 134.905 207.718C134.901 208.112 134.997 208.46 135.194 208.762C135.391 209.06 135.668 209.293 136.025 209.461C136.386 209.629 136.809 209.713 137.296 209.713ZM137.296 203.842C137.69 203.842 138.038 203.762 138.34 203.603C138.647 203.443 138.888 203.221 139.064 202.936C139.24 202.65 139.33 202.321 139.335 201.948C139.33 201.579 139.242 201.256 139.07 200.979C138.898 200.698 138.659 200.482 138.353 200.331C138.047 200.175 137.694 200.098 137.296 200.098C136.889 200.098 136.53 200.175 136.22 200.331C135.914 200.482 135.675 200.698 135.503 200.979C135.335 201.256 135.253 201.579 135.257 201.948C135.253 202.321 135.337 202.65 135.509 202.936C135.685 203.217 135.926 203.439 136.233 203.603C136.543 203.762 136.897 203.842 137.296 203.842ZM145.581 209.788C145.2 209.788 144.872 209.654 144.6 209.385C144.327 209.113 144.193 208.785 144.197 208.404C144.193 208.026 144.327 207.703 144.6 207.435C144.872 207.166 145.2 207.032 145.581 207.032C145.95 207.032 146.271 207.166 146.544 207.435C146.821 207.703 146.961 208.026 146.966 208.404C146.961 208.66 146.894 208.892 146.764 209.102C146.638 209.312 146.471 209.48 146.261 209.606C146.055 209.727 145.829 209.788 145.581 209.788ZM145.581 203.401C145.2 203.401 144.872 203.267 144.6 202.999C144.327 202.726 144.193 202.399 144.197 202.017C144.193 201.639 144.327 201.316 144.6 201.048C144.872 200.775 145.2 200.639 145.581 200.639C145.95 200.639 146.271 200.775 146.544 201.048C146.821 201.316 146.961 201.639 146.966 202.017C146.961 202.269 146.894 202.499 146.764 202.709C146.638 202.919 146.471 203.087 146.261 203.213C146.055 203.338 145.829 203.401 145.581 203.401ZM154.055 211.581C153.019 211.581 152.13 211.319 151.388 210.795C150.649 210.266 150.081 209.505 149.682 208.511C149.288 207.512 149.091 206.31 149.091 204.905C149.095 203.5 149.294 202.304 149.689 201.319C150.087 200.329 150.656 199.574 151.394 199.053C152.136 198.533 153.024 198.273 154.055 198.273C155.087 198.273 155.975 198.533 156.717 199.053C157.46 199.574 158.028 200.329 158.422 201.319C158.821 202.309 159.02 203.504 159.02 204.905C159.02 206.315 158.821 207.519 158.422 208.517C158.028 209.511 157.46 210.27 156.717 210.795C155.979 211.319 155.092 211.581 154.055 211.581ZM154.055 209.612C154.861 209.612 155.496 209.215 155.962 208.423C156.432 207.626 156.667 206.453 156.667 204.905C156.667 203.882 156.56 203.022 156.346 202.325C156.132 201.629 155.83 201.105 155.44 200.752C155.05 200.396 154.588 200.217 154.055 200.217C153.254 200.217 152.621 200.616 152.155 201.413C151.69 202.206 151.455 203.37 151.45 204.905C151.446 205.933 151.549 206.797 151.759 207.498C151.973 208.198 152.275 208.727 152.665 209.083C153.055 209.436 153.519 209.612 154.055 209.612ZM165.874 211.581C164.838 211.581 163.949 211.319 163.206 210.795C162.468 210.266 161.899 209.505 161.501 208.511C161.107 207.512 160.909 206.31 160.909 204.905C160.914 203.5 161.113 202.304 161.507 201.319C161.906 200.329 162.474 199.574 163.212 199.053C163.955 198.533 164.842 198.273 165.874 198.273C166.906 198.273 167.793 198.533 168.536 199.053C169.278 199.574 169.847 200.329 170.241 201.319C170.639 202.309 170.839 203.504 170.839 204.905C170.839 206.315 170.639 207.519 170.241 208.517C169.847 209.511 169.278 210.27 168.536 210.795C167.797 211.319 166.91 211.581 165.874 211.581ZM165.874 209.612C166.679 209.612 167.315 209.215 167.781 208.423C168.25 207.626 168.485 206.453 168.485 204.905C168.485 203.882 168.378 203.022 168.164 202.325C167.95 201.629 167.648 201.105 167.258 200.752C166.868 200.396 166.407 200.217 165.874 200.217C165.073 200.217 164.439 200.616 163.974 201.413C163.508 202.206 163.273 203.37 163.269 204.905C163.265 205.933 163.368 206.797 163.577 207.498C163.791 208.198 164.093 208.727 164.483 209.083C164.874 209.436 165.337 209.612 165.874 209.612Z" fill="white"/>
<path d="M39.7299 143.328H48.935L56.7436 162.369H57.104L64.9125 143.328H74.1176V174.082H66.8797V155.191H66.6244L59.2363 173.887H54.6112L47.2231 155.086H46.9678V174.082H39.7299V143.328ZM89.5208 174.518C87.0981 174.518 85.0159 174.022 83.2739 173.031C81.542 172.03 80.2056 170.638 79.2645 168.856C78.3335 167.064 77.868 164.987 77.868 162.624C77.868 160.252 78.3335 158.175 79.2645 156.393C80.2056 154.601 81.542 153.209 83.2739 152.218C85.0159 151.217 87.0981 150.716 89.5208 150.716C91.9435 150.716 94.0207 151.217 95.7526 152.218C97.4946 153.209 98.831 154.601 99.762 156.393C100.703 158.175 101.174 160.252 101.174 162.624C101.174 164.987 100.703 167.064 99.762 168.856C98.831 170.638 97.4946 172.03 95.7526 173.031C94.0207 174.022 91.9435 174.518 89.5208 174.518ZM89.5658 168.976C90.4468 168.976 91.1926 168.706 91.8033 168.166C92.414 167.625 92.8795 166.874 93.1998 165.913C93.5302 164.952 93.6954 163.841 93.6954 162.579C93.6954 161.298 93.5302 160.177 93.1998 159.216C92.8795 158.255 92.414 157.504 91.8033 156.963C91.1926 156.423 90.4468 156.152 89.5658 156.152C88.6548 156.152 87.884 156.423 87.2533 156.963C86.6326 157.504 86.1571 158.255 85.8267 159.216C85.5064 160.177 85.3462 161.298 85.3462 162.579C85.3462 163.841 85.5064 164.952 85.8267 165.913C86.1571 166.874 86.6326 167.625 87.2533 168.166C87.884 168.706 88.6548 168.976 89.5658 168.976ZM115.702 174.518C113.269 174.518 111.182 174.017 109.44 173.016C107.708 172.015 106.377 170.623 105.446 168.841C104.515 167.049 104.049 164.977 104.049 162.624C104.049 160.262 104.515 158.19 105.446 156.408C106.387 154.616 107.723 153.219 109.455 152.218C111.197 151.217 113.274 150.716 115.687 150.716C117.819 150.716 119.676 151.102 121.258 151.873C122.85 152.644 124.091 153.735 124.982 155.146C125.883 156.548 126.359 158.195 126.409 160.087H119.546C119.406 158.905 119.006 157.979 118.345 157.309C117.694 156.638 116.843 156.303 115.792 156.303C114.941 156.303 114.195 156.543 113.555 157.023C112.914 157.494 112.413 158.195 112.053 159.126C111.703 160.047 111.527 161.188 111.527 162.549C111.527 163.911 111.703 165.062 112.053 166.003C112.413 166.934 112.914 167.64 113.555 168.12C114.195 168.591 114.941 168.826 115.792 168.826C116.473 168.826 117.074 168.681 117.594 168.391C118.125 168.1 118.56 167.675 118.901 167.114C119.241 166.544 119.456 165.853 119.546 165.042H126.409C126.339 166.944 125.863 168.606 124.982 170.028C124.111 171.449 122.885 172.555 121.303 173.346C119.731 174.127 117.864 174.518 115.702 174.518ZM130.167 174.082V151.017H137.51V159.606H139.131L144.733 151.017H153.232L145.468 162.564L153.307 174.082H144.703L139.642 166.424H137.51V174.082H130.167ZM155.605 174.082V151.017H165.561C168.534 151.017 170.876 151.552 172.588 152.623C174.31 153.685 175.171 155.241 175.171 157.294C175.171 158.485 174.686 159.511 173.714 160.372C172.753 161.223 171.387 161.799 169.615 162.099C171.177 162.179 172.473 162.489 173.504 163.03C174.535 163.57 175.306 164.256 175.817 165.087C176.327 165.918 176.583 166.804 176.583 167.745C176.583 169.107 176.217 170.258 175.486 171.199C174.756 172.14 173.684 172.856 172.273 173.346C170.871 173.837 169.149 174.082 167.107 174.082H155.605ZM162.437 168.766H167.107C167.888 168.766 168.499 168.581 168.939 168.211C169.39 167.84 169.615 167.33 169.615 166.679C169.615 165.978 169.39 165.428 168.939 165.027C168.499 164.627 167.888 164.426 167.107 164.426H162.437V168.766ZM162.437 160.447H165.756C166.286 160.447 166.742 160.367 167.122 160.207C167.503 160.047 167.793 159.816 167.993 159.516C168.203 159.216 168.309 158.855 168.309 158.435C168.309 157.824 168.063 157.344 167.573 156.993C167.092 156.643 166.421 156.468 165.561 156.468H162.437V160.447ZM186.719 174.472C185.247 174.472 183.941 174.227 182.799 173.737C181.668 173.236 180.772 172.485 180.111 171.484C179.461 170.473 179.135 169.207 179.135 167.685C179.135 166.404 179.361 165.322 179.811 164.441C180.262 163.56 180.882 162.845 181.673 162.294C182.464 161.743 183.375 161.328 184.406 161.048C185.437 160.757 186.539 160.562 187.71 160.462C189.021 160.342 190.077 160.217 190.878 160.087C191.679 159.947 192.26 159.751 192.62 159.501C192.991 159.241 193.176 158.875 193.176 158.405V158.33C193.176 157.559 192.911 156.963 192.38 156.543C191.849 156.122 191.134 155.912 190.233 155.912C189.262 155.912 188.481 156.122 187.89 156.543C187.299 156.963 186.924 157.544 186.764 158.285L179.991 158.044C180.192 156.643 180.707 155.392 181.538 154.29C182.379 153.179 183.53 152.308 184.992 151.677C186.463 151.037 188.23 150.716 190.293 150.716C191.764 150.716 193.121 150.892 194.362 151.242C195.603 151.582 196.685 152.083 197.606 152.744C198.527 153.394 199.237 154.195 199.738 155.146C200.249 156.097 200.504 157.183 200.504 158.405V174.082H193.596V170.869H193.416C193.006 171.649 192.48 172.31 191.839 172.851C191.209 173.391 190.463 173.797 189.602 174.067C188.751 174.337 187.79 174.472 186.719 174.472ZM188.986 169.667C189.777 169.667 190.488 169.507 191.119 169.187C191.759 168.866 192.27 168.426 192.65 167.865C193.031 167.295 193.221 166.634 193.221 165.883V163.691C193.011 163.801 192.755 163.901 192.455 163.991C192.165 164.081 191.844 164.166 191.494 164.246C191.144 164.326 190.783 164.396 190.413 164.456C190.042 164.517 189.687 164.572 189.347 164.622C188.656 164.732 188.065 164.902 187.575 165.132C187.094 165.362 186.724 165.663 186.463 166.033C186.213 166.394 186.088 166.824 186.088 167.325C186.088 168.085 186.358 168.666 186.899 169.067C187.45 169.467 188.145 169.667 188.986 169.667Z" fill="white"/>
</g>
<defs>
<clipPath id="clip0_1340_16">
<rect width="241" height="242" fill="white"/>
</clipPath>
</defs>
</svg>
