<svg width="736" height="552" viewBox="0 0 736 552" fill="none" xmlns="http://www.w3.org/2000/svg">
<g clip-path="url(#clip0_1250_647)">
<path d="M303.645 301.719C225.099 247.056 85.7577 278.943 25.9051 301.719C-9.14222 315.056 -19.7497 325.967 -22.5224 332.72V340.196C-22.5224 340.196 -24.4847 337.499 -22.5224 332.72V42.5547H821.974V207.739C821.532 256.609 799.817 345.813 716.495 311.67C633.173 277.528 574.087 301.719 574.087 301.719C574.087 301.719 382.19 356.383 303.645 301.719Z" fill="#94F2FF"/>
<path d="M285.961 287.133C207.416 232.47 68.0741 264.357 8.22155 287.133C-26.8258 300.47 -37.4333 311.381 -40.206 318.134V325.61C-40.206 325.61 -42.1683 322.913 -40.206 318.134V27.9688H804.29V193.153C803.848 242.023 782.133 331.227 698.811 297.084C615.489 262.942 556.403 287.133 556.403 287.133C556.403 287.133 364.507 341.797 285.961 287.133Z" fill="#1FD2E9"/>
<path d="M309.84 253.958C231.295 199.294 91.953 231.181 32.1005 253.958C-2.94691 267.295 -13.5544 278.205 -16.3271 284.958V292.434C-16.3271 292.434 -18.2894 289.738 -16.3271 284.958V-5.20703H828.169V159.977C827.727 208.847 806.012 298.051 722.69 263.908C639.368 229.766 580.282 253.958 580.282 253.958C580.282 253.958 388.385 308.621 309.84 253.958Z" fill="#1AE4FF"/>
<path d="M309.844 213.711C231.298 159.048 91.9569 190.935 32.1044 213.711C-2.943 227.048 -13.5505 237.959 -16.3232 244.712V252.188C-16.3232 252.188 -18.2855 249.492 -16.3232 244.712V-45.4531H828.173V119.731C827.731 168.601 806.016 257.805 722.694 223.662C639.372 189.52 580.286 213.711 580.286 213.711C580.286 213.711 388.389 268.375 309.844 213.711Z" fill="#94F2FF"/>
<path d="M292.16 199.126C213.615 144.462 74.2733 176.349 14.4208 199.126C-20.6266 212.463 -31.2341 223.373 -34.0067 230.126V237.602C-34.0067 237.602 -35.9691 234.906 -34.0067 230.126V-60.0391H810.49V105.145C810.047 154.015 788.332 243.219 705.01 209.076C621.689 174.934 562.603 199.126 562.603 199.126C562.603 199.126 370.706 253.789 292.16 199.126Z" fill="#1FD2E9"/>
<path d="M316.039 165.95C237.494 111.286 98.1523 143.173 38.2997 165.95C3.25231 179.287 -7.35522 190.197 -10.1278 196.95V204.426C-10.1278 204.426 -12.0902 201.73 -10.1278 196.95V-93.2148H834.368V71.9694C833.926 120.839 812.211 210.043 728.889 175.901C645.567 141.758 586.481 165.95 586.481 165.95C586.481 165.95 394.585 220.613 316.039 165.95Z" fill="#94F2FF"/>
<path d="M247.031 353.914C168.486 408.577 29.1444 376.69 -30.7081 353.914C-65.7555 340.577 -76.363 329.666 -79.1357 322.913V315.437C-79.1357 315.437 -81.098 318.133 -79.1357 322.913V613.078H765.361V447.894C764.918 399.024 743.203 309.82 659.881 343.963C576.56 378.105 517.474 353.914 517.474 353.914C517.474 353.914 325.577 299.25 247.031 353.914Z" fill="#94F2FF"/>
<path d="M229.348 368.507C150.802 423.171 11.4608 391.284 -48.3917 368.507C-83.4391 355.17 -94.0466 344.26 -96.8192 337.507V330.031C-96.8192 330.031 -98.7816 332.727 -96.8192 337.507V627.672H747.677V462.488C747.235 413.618 725.52 324.414 642.198 358.556C558.876 392.699 499.79 368.507 499.79 368.507C499.79 368.507 307.893 313.844 229.348 368.507Z" fill="#1FD2E9"/>
<path d="M253.227 401.671C174.681 456.335 35.3398 424.448 -24.5128 401.671C-59.5602 388.334 -70.1677 377.424 -72.9403 370.671V363.195C-72.9403 363.195 -74.9027 365.891 -72.9403 370.671V660.836H771.556V495.652C771.114 446.782 749.399 357.578 666.077 391.72C582.755 425.863 523.669 401.671 523.669 401.671C523.669 401.671 331.772 347.008 253.227 401.671Z" fill="#1AE4FF"/>
<path d="M253.231 441.925C174.685 496.589 35.3437 464.702 -24.5089 441.925C-59.5563 428.588 -70.1638 417.678 -72.9364 410.925V403.449C-72.9364 403.449 -74.8988 406.145 -72.9364 410.925V701.09H771.56V535.906C771.118 487.036 749.403 397.832 666.081 431.974C582.759 466.117 523.673 441.925 523.673 441.925C523.673 441.925 331.776 387.262 253.231 441.925Z" fill="#94F2FF"/>
<path d="M235.547 456.519C157.002 511.182 17.6601 479.295 -42.1925 456.519C-77.2399 443.182 -87.8474 432.271 -90.62 425.518V418.042C-90.62 418.042 -92.5824 420.739 -90.62 425.518V715.684H753.876V550.499C753.434 501.63 731.719 412.426 648.397 446.568C565.075 480.711 505.989 456.519 505.989 456.519C505.989 456.519 314.092 401.856 235.547 456.519Z" fill="#1FD2E9"/>
<path d="M259.426 489.683C180.88 544.346 41.539 512.459 -18.3136 489.683C-53.361 476.346 -63.9685 465.435 -66.7411 458.682V451.206C-66.7411 451.206 -68.7035 453.903 -66.7411 458.682V748.848H777.755V583.663C777.313 534.794 755.598 445.59 672.276 479.732C588.954 513.875 529.868 489.683 529.868 489.683C529.868 489.683 337.971 435.02 259.426 489.683Z" fill="#94F2FF"/>
</g>
<defs>
<clipPath id="clip0_1250_647">
<rect width="736" height="552" fill="white"/>
</clipPath>
</defs>
</svg>
