<svg width="722" height="252" viewBox="0 0 722 252" fill="none" xmlns="http://www.w3.org/2000/svg">
<g clip-path="url(#clip0_1250_646)">
<path d="M316.043 220.711C237.498 166.048 98.1562 197.935 38.3036 220.711C3.25622 234.048 -7.35131 244.959 -10.1239 251.712V259.188C-10.1239 259.188 -12.0863 256.492 -10.1239 251.712V-38.4531H834.372V126.731C833.93 175.601 812.215 264.805 728.893 230.662C645.571 196.52 586.485 220.711 586.485 220.711C586.485 220.711 394.589 275.375 316.043 220.711Z" fill="#94F2FF"/>
<path d="M298.36 198.126C219.814 143.462 80.4726 175.349 20.62 198.126C-14.4274 211.463 -25.0349 222.373 -27.8075 229.126V236.602C-27.8075 236.602 -29.7699 233.906 -27.8075 229.126V-61.0391H816.689V104.145C816.246 153.015 794.531 242.219 711.21 208.076C627.888 173.934 568.802 198.126 568.802 198.126C568.802 198.126 376.905 252.789 298.36 198.126Z" fill="#1FD2E9"/>
<path d="M322.238 164.95C243.693 110.286 104.351 142.173 44.4989 164.95C9.45153 178.287 -1.156 189.197 -3.92862 195.95V203.426C-3.92862 203.426 -5.89098 200.73 -3.92862 195.95V-94.2148H840.568V70.9694C840.125 119.839 818.41 209.043 735.089 174.901C651.767 140.758 592.681 164.95 592.681 164.95C592.681 164.95 400.784 219.613 322.238 164.95Z" fill="#94F2FF"/>
<path d="M322.238 124.719C243.693 70.0559 104.351 101.943 44.4989 124.719C9.45153 138.056 -1.156 148.967 -3.92862 155.72V163.196C-3.92862 163.196 -5.89098 160.499 -3.92862 155.72V-134.445H840.568V30.739C840.125 79.6087 818.41 168.813 735.089 134.67C651.767 100.528 592.681 124.719 592.681 124.719C592.681 124.719 400.784 179.383 322.238 124.719Z" fill="#94F2FF"/>
<path d="M304.555 110.126C226.009 55.4621 86.6679 87.3491 26.8153 110.126C-8.23207 123.463 -18.8396 134.373 -21.6122 141.126V148.602C-21.6122 148.602 -23.5746 145.906 -21.6122 141.126V-149.039H822.884V16.1452C822.442 65.015 800.727 154.219 717.405 120.076C634.083 85.9339 574.997 110.126 574.997 110.126C574.997 110.126 383.1 164.789 304.555 110.126Z" fill="#1FD2E9"/>
<path d="M325.67 70.6062C246.973 16.0606 107.363 47.8788 47.3948 70.6062C12.2798 83.9145 1.65182 94.8017 -1.12616 101.54V109C-1.12616 109 -3.0923 106.309 -1.12616 101.54V-188H845V-23.1716C844.557 25.5929 822.8 114.605 739.317 80.5357C655.835 46.4667 596.635 70.6062 596.635 70.6062C596.635 70.6062 404.367 125.152 325.67 70.6062Z" fill="#94F2FF"/>
</g>
<defs>
<clipPath id="clip0_1250_646">
<rect width="722" height="252" fill="white"/>
</clipPath>
</defs>
</svg>
