<svg width="1851" height="779" viewBox="0 0 1851 779" fill="none" xmlns="http://www.w3.org/2000/svg">
<g clip-path="url(#clip0_1237_532)">
<g clip-path="url(#clip1_1237_532)">
<rect x="592.727" y="362.867" width="606.38" height="253.038" rx="22.7962" transform="rotate(-16.3858 592.727 362.867)" fill="#19E3FF"/>
<rect x="549.504" y="401.711" width="679.328" height="202.886" transform="rotate(-16.3858 549.504 401.711)" fill="white"/>
<path d="M945.348 305.516L991.65 462.982" stroke="#494949" stroke-width="4.55925" stroke-linecap="round"/>
<path d="M652.422 509.273L667.856 561.762" stroke="#4A4A4A" stroke-width="18.9524" stroke-linecap="square" stroke-dasharray="2.44 2.44"/>
<path d="M1016.68 338.41L1063.12 314.443L1081.22 330.964L1129.13 298.837" stroke="#333333" stroke-width="9.08576" stroke-linecap="round"/>
<path d="M1077.65 373.404C1073.47 373.912 1064.25 383.057 1060.17 387.566C1070.25 387.489 1087.55 392.745 1094.94 395.383L1099.05 396.788L1100.75 393.674C1105.54 387.455 1117.24 373.671 1125.76 368.279C1119.88 366.7 1107.18 364 1103.39 365.836C1099.6 367.672 1091.75 356.93 1088.3 351.33L1082.84 344.037L1082.49 353.039C1082.62 359.616 1081.83 372.897 1077.65 373.404Z" fill="#333333" stroke="#333333" stroke-width="6.92338"/>
<path d="M1125.29 322.437C1133.67 321.363 1137.46 331.579 1138.32 336.821C1140.88 343.872 1136.73 350.659 1134.33 353.17C1125.75 358.295 1099.52 365.739 1092.09 368.898L1088.51 356.72L1083.64 334.685C1094.04 331.05 1116.92 323.512 1125.29 322.437Z" stroke="#333333" stroke-width="9.62021"/>
<path d="M1034.92 349.004C1027.3 352.633 1029.64 363.278 1031.76 368.147C1033.42 375.465 1040.58 378.923 1043.96 379.737C1053.94 379.403 1080.03 371.462 1087.99 370.098L1084.41 357.92L1076.57 336.757C1065.86 339.327 1042.54 345.376 1034.92 349.004Z" stroke="#333333" stroke-width="9.62021"/>
<path d="M1058.78 386.31L1055.92 389.47L1060.18 389.437C1064.97 389.4 1071.62 390.642 1078.11 392.271C1084.55 393.888 1090.67 395.844 1094.31 397.144L1094.32 397.149L1094.34 397.153L1098.45 398.558L1099.94 399.067L1100.7 397.684L1102.32 394.699C1104.7 391.624 1108.74 386.734 1113.22 381.945C1117.79 377.066 1122.71 372.421 1126.76 369.86L1130.36 367.58L1126.25 366.473C1123.26 365.669 1118.54 364.582 1114.06 363.926C1111.83 363.598 1109.61 363.371 1107.68 363.35C1105.83 363.33 1103.94 363.49 1102.58 364.152C1102.56 364.159 1102.14 364.321 1100.92 363.55C1099.81 362.847 1098.5 361.645 1097.1 360.114C1094.34 357.073 1091.58 353.091 1089.89 350.348L1089.85 350.276L1089.8 350.208L1084.33 342.916L1081.17 338.695L1080.97 343.965L1080.62 352.967L1080.62 353.021L1080.62 353.076C1080.68 356.297 1080.52 361.137 1079.84 365.189C1079.5 367.23 1079.05 368.95 1078.49 370.145C1077.89 371.452 1077.44 371.545 1077.43 371.547C1075.92 371.73 1074.25 372.616 1072.7 373.635C1071.09 374.699 1069.35 376.09 1067.65 377.575C1064.24 380.549 1060.86 384.017 1058.78 386.31Z" stroke="white" stroke-width="3.74119"/>
<path d="M989.226 309.25L1022.66 503.766L1030.57 514.509L1186.56 479.334L1142.38 252.334L989.226 309.25Z" stroke="#333333" stroke-width="13.6777"/>
<path d="M692.238 414.391L801.59 382.236" stroke="#494949" stroke-width="6.83887" stroke-linecap="round"/>
<path d="M709.406 468.746L873.434 420.514" stroke="#494949" stroke-width="6.83887" stroke-linecap="round"/>
<path d="M727.539 506.191L891.567 457.96" stroke="#494949" stroke-width="6.83887" stroke-linecap="round"/>
</g>
<g clip-path="url(#clip2_1237_532)">
<rect x="1185" y="189.078" width="606.38" height="253.038" rx="22.7962" transform="rotate(-16.3858 1185 189.078)" fill="#19E3FF"/>
<rect x="1141.78" y="227.922" width="679.328" height="202.886" transform="rotate(-16.3858 1141.78 227.922)" fill="white"/>
<path d="M1537.62 131.727L1583.92 289.193" stroke="#494949" stroke-width="4.55925" stroke-linecap="round"/>
<path d="M1244.7 335.484L1260.13 387.973" stroke="#4A4A4A" stroke-width="18.9524" stroke-linecap="square" stroke-dasharray="2.44 2.44"/>
<path d="M1608.95 164.621L1655.39 140.654L1673.49 157.175L1721.4 125.048" stroke="#333333" stroke-width="9.08576" stroke-linecap="round"/>
<path d="M1669.93 199.615C1665.75 200.123 1656.53 209.268 1652.44 213.777C1662.52 213.7 1679.82 218.956 1687.21 221.594L1691.33 222.999L1693.03 219.885C1697.81 213.666 1709.52 199.881 1718.03 194.49C1712.16 192.911 1699.46 190.211 1695.67 192.047C1691.88 193.883 1684.03 183.141 1680.58 177.541L1675.11 170.248L1674.76 179.25C1674.89 185.827 1674.11 199.107 1669.93 199.615Z" fill="#333333" stroke="#333333" stroke-width="6.92338"/>
<path d="M1717.57 148.648C1725.94 147.574 1729.74 157.79 1730.59 163.032C1733.15 170.083 1729 176.87 1726.6 179.381C1718.03 184.506 1691.79 191.95 1684.37 195.109L1680.78 182.931L1675.92 160.896C1686.31 157.261 1709.19 149.723 1717.57 148.648Z" stroke="#333333" stroke-width="9.62021"/>
<path d="M1627.19 175.215C1619.57 178.844 1621.91 189.489 1624.03 194.358C1625.69 201.676 1632.86 205.134 1636.23 205.948C1646.22 205.614 1672.31 197.673 1680.26 196.309L1676.68 184.131L1668.85 162.968C1658.14 165.538 1634.82 171.587 1627.19 175.215Z" stroke="#333333" stroke-width="9.62021"/>
<path d="M1651.06 212.521L1648.19 215.68L1652.46 215.648C1657.24 215.611 1663.9 216.853 1670.38 218.481C1676.83 220.099 1682.94 222.055 1686.59 223.355L1686.6 223.36L1686.61 223.364L1690.72 224.769L1692.21 225.278L1692.97 223.894L1694.6 220.91C1696.97 217.835 1701.01 212.944 1705.5 208.156C1710.07 203.277 1714.99 198.632 1719.03 196.071L1722.64 193.79L1718.52 192.684C1715.53 191.88 1710.81 190.793 1706.34 190.137C1704.1 189.809 1701.89 189.582 1699.95 189.561C1698.1 189.541 1696.22 189.701 1694.85 190.363C1694.84 190.37 1694.41 190.532 1693.19 189.761C1692.08 189.058 1690.77 187.856 1689.38 186.325C1686.61 183.284 1683.86 179.302 1682.17 176.559L1682.12 176.487L1682.07 176.419L1676.61 169.127L1673.44 164.906L1673.24 170.176L1672.89 179.178L1672.89 179.232L1672.89 179.287C1672.96 182.508 1672.79 187.348 1672.12 191.4C1671.78 193.441 1671.32 195.161 1670.77 196.355C1670.16 197.663 1669.72 197.756 1669.7 197.758C1668.19 197.941 1666.52 198.827 1664.98 199.846C1663.36 200.91 1661.62 202.301 1659.92 203.786C1656.51 206.76 1653.13 210.228 1651.06 212.521Z" stroke="white" stroke-width="3.74119"/>
<path d="M1581.5 135.461L1614.94 329.977L1622.85 340.72L1778.83 305.545L1734.66 78.5454L1581.5 135.461Z" stroke="#333333" stroke-width="13.6777"/>
<path d="M1284.51 240.602L1393.86 208.447" stroke="#494949" stroke-width="6.83887" stroke-linecap="round"/>
<path d="M1301.68 294.957L1465.71 246.725" stroke="#494949" stroke-width="6.83887" stroke-linecap="round"/>
<path d="M1319.81 332.402L1483.84 284.171" stroke="#494949" stroke-width="6.83887" stroke-linecap="round"/>
</g>
<g clip-path="url(#clip3_1237_532)">
<rect x="0.101562" y="536.68" width="606.38" height="253.038" rx="22.7962" transform="rotate(-16.3858 0.101562 536.68)" fill="#19E3FF"/>
<rect x="-43.125" y="575.535" width="679.328" height="202.886" transform="rotate(-16.3858 -43.125 575.535)" fill="white"/>
<path d="M352.719 479.34L399.021 636.806" stroke="#494949" stroke-width="4.55925" stroke-linecap="round"/>
<path d="M59.793 683.094L75.2271 735.583" stroke="#4A4A4A" stroke-width="18.9524" stroke-linecap="square" stroke-dasharray="2.44 2.44"/>
<path d="M424.052 512.222L470.49 488.256L488.587 504.777L536.502 472.65" stroke="#333333" stroke-width="9.08576" stroke-linecap="round"/>
<path d="M485.024 547.236C480.844 547.744 471.626 556.889 467.539 561.398C477.62 561.321 494.921 566.577 502.312 569.215L506.425 570.62L508.124 567.506C512.91 561.287 524.613 547.503 533.131 542.111C527.254 540.532 514.553 537.832 510.763 539.668C506.973 541.504 499.124 530.762 495.673 525.162L490.208 517.87L489.861 526.871C489.991 533.448 489.205 546.729 485.024 547.236Z" fill="#333333" stroke="#333333" stroke-width="6.92338"/>
<path d="M532.669 496.258C541.042 495.183 544.839 505.399 545.691 510.642C548.256 517.693 544.103 524.479 541.706 526.991C533.128 532.115 506.894 539.559 499.467 542.718L495.886 530.541L491.018 508.505C501.413 504.87 524.296 497.332 532.669 496.258Z" stroke="#333333" stroke-width="9.62021"/>
<path d="M442.292 522.825C434.671 526.453 437.008 537.099 439.129 541.968C440.789 549.285 447.954 552.743 451.329 553.558C461.316 553.223 487.404 545.283 495.359 543.918L491.778 531.74L483.944 510.577C473.236 513.148 449.914 519.196 442.292 522.825Z" stroke="#333333" stroke-width="9.62021"/>
<path d="M466.153 560.142L463.29 563.302L467.554 563.269C472.342 563.232 478.993 564.475 485.479 566.103C491.923 567.72 498.039 569.676 501.683 570.976L501.695 570.981L501.707 570.985L505.82 572.39L507.312 572.899L508.067 571.516L509.695 568.531C512.069 565.457 516.107 560.566 520.593 555.777C525.165 550.898 530.085 546.253 534.131 543.692L537.734 541.412L533.616 540.305C530.627 539.502 525.909 538.414 521.436 537.758C519.201 537.43 516.983 537.203 515.051 537.183C513.199 537.163 511.314 537.322 509.947 537.984C509.934 537.991 509.51 538.153 508.291 537.382C507.178 536.679 505.866 535.477 504.475 533.946C501.712 530.905 498.955 526.923 497.265 524.181L497.221 524.108L497.17 524.04L491.705 516.748L488.542 512.527L488.339 517.797L487.992 526.799L487.99 526.853L487.991 526.908C488.054 530.129 487.891 534.969 487.214 539.021C486.873 541.062 486.421 542.782 485.866 543.977C485.258 545.284 484.814 545.377 484.799 545.379C483.291 545.562 481.62 546.448 480.074 547.467C478.46 548.531 476.718 549.922 475.017 551.407C471.61 554.381 468.232 557.849 466.153 560.142Z" stroke="white" stroke-width="3.74119"/>
<path d="M396.597 483.063L430.033 677.579L437.944 688.321L593.93 653.147L549.755 426.147L396.597 483.063Z" stroke="#333333" stroke-width="13.6777"/>
<path d="M99.6133 588.215L208.965 556.06" stroke="#494949" stroke-width="6.83887" stroke-linecap="round"/>
<path d="M116.781 642.562L280.809 594.331" stroke="#494949" stroke-width="6.83887" stroke-linecap="round"/>
<path d="M134.91 680.016L298.938 631.784" stroke="#494949" stroke-width="6.83887" stroke-linecap="round"/>
</g>
</g>
<defs>
<clipPath id="clip0_1237_532">
<rect width="1851" height="779" fill="white"/>
</clipPath>
<clipPath id="clip1_1237_532">
<rect x="592.727" y="362.867" width="606.38" height="253.038" rx="22.7962" transform="rotate(-16.3858 592.727 362.867)" fill="white"/>
</clipPath>
<clipPath id="clip2_1237_532">
<rect x="1185" y="189.078" width="606.38" height="253.038" rx="22.7962" transform="rotate(-16.3858 1185 189.078)" fill="white"/>
</clipPath>
<clipPath id="clip3_1237_532">
<rect x="0.101562" y="536.68" width="606.38" height="253.038" rx="22.7962" transform="rotate(-16.3858 0.101562 536.68)" fill="white"/>
</clipPath>
</defs>
</svg>
