<svg width="1864" height="255" viewBox="0 0 1864 255" fill="none" xmlns="http://www.w3.org/2000/svg">
<g clip-path="url(#clip0_1262_80)">
<rect x="629" y="1" width="606.38" height="253.038" rx="22.7962" fill="#19E3FF"/>
<rect x="576.574" y="26.0742" width="679.328" height="202.886" fill="white"/>
<path d="M983.477 45.4531L983.477 209.586" stroke="#494949" stroke-width="4.55925" stroke-linecap="round"/>
<path d="M644.969 158.301L644.969 213.012" stroke="#4A4A4A" stroke-width="18.9524" stroke-linecap="square" stroke-dasharray="2.44 2.44"/>
<path d="M1042.64 97.1356L1093.95 87.2428L1106.65 108.198L1161.68 90.8925" stroke="#333333" stroke-width="9.08576" stroke-linecap="round"/>
<path d="M1091.26 147.911C1087.1 147.219 1075.68 153.392 1070.49 156.565C1080.18 159.335 1095.3 169.258 1101.64 173.874L1105.19 176.382L1107.7 173.874C1114.05 169.258 1129.16 159.335 1138.86 156.565C1133.66 153.392 1122.24 147.219 1118.09 147.911C1113.93 148.603 1109.43 136.083 1107.7 129.737L1104.52 121.199L1101.64 129.737C1099.91 136.083 1095.41 148.603 1091.26 147.911Z" fill="#333333" stroke="#333333" stroke-width="6.92338"/>
<path d="M1151.34 112.454C1159.68 113.785 1160.44 124.657 1159.78 129.927C1160.25 137.416 1154.35 142.755 1151.34 144.488C1141.67 146.984 1114.4 146.726 1106.38 147.661L1106.38 134.968L1107.93 112.454C1118.93 111.899 1143.01 111.123 1151.34 112.454Z" stroke="#333333" stroke-width="9.62021"/>
<path d="M1057.15 112.446C1048.81 113.777 1048.05 124.65 1048.71 129.919C1048.24 137.408 1054.14 142.747 1057.15 144.48C1066.82 146.976 1094.09 146.718 1102.11 147.653L1102.11 134.96L1100.56 112.446C1089.56 111.891 1065.48 111.115 1057.15 112.446Z" stroke="#333333" stroke-width="9.62021"/>
<path d="M1069.51 154.969L1065.87 157.192L1069.97 158.364C1074.58 159.679 1080.61 162.748 1086.37 166.139C1092.1 169.509 1097.41 173.11 1100.54 175.386L1100.55 175.394L1100.56 175.401L1104.11 177.91L1105.4 178.819L1106.52 177.705L1108.92 175.301C1112.06 173.02 1117.32 169.467 1122.97 166.139C1128.74 162.748 1134.77 159.679 1139.37 158.364L1143.47 157.192L1139.83 154.969C1137.19 153.355 1132.97 150.981 1128.86 149.089C1126.81 148.145 1124.75 147.301 1122.9 146.736C1121.13 146.195 1119.28 145.816 1117.78 146.066C1117.76 146.068 1117.31 146.104 1116.36 145.021C1115.49 144.032 1114.57 142.509 1113.67 140.647C1111.88 136.95 1110.35 132.353 1109.51 129.245L1109.48 129.163L1109.45 129.083L1106.27 120.545L1104.42 115.604L1102.74 120.603L1099.87 129.141L1099.85 129.192L1099.84 129.245C1098.99 132.353 1097.47 136.95 1095.68 140.647C1094.77 142.509 1093.85 144.032 1092.99 145.021C1092.03 146.104 1091.58 146.068 1091.57 146.066C1090.07 145.816 1088.21 146.195 1086.44 146.736C1084.6 147.301 1082.53 148.145 1080.48 149.089C1076.37 150.981 1072.15 153.355 1069.51 154.969Z" stroke="white" stroke-width="3.74119"/>
<path d="M1024.52 61.4176L1001.73 257.465L1006.29 270.003L1165.86 280.261L1187.52 50.0195L1024.52 61.4176Z" stroke="#333333" stroke-width="13.6777"/>
<path d="M709.934 78.5039H823.915" stroke="#494949" stroke-width="6.83887" stroke-linecap="round"/>
<path d="M711.07 135.496H882.042" stroke="#494949" stroke-width="6.83887" stroke-linecap="round"/>
<path d="M717.906 176.535H888.878" stroke="#494949" stroke-width="6.83887" stroke-linecap="round"/>
</g>
<g clip-path="url(#clip1_1262_80)">
<rect x="1257" y="1" width="606.38" height="253.038" rx="22.7962" fill="#19E3FF"/>
<rect x="1204.57" y="26.0742" width="679.328" height="202.886" fill="white"/>
<path d="M1611.48 45.4531L1611.48 209.586" stroke="#494949" stroke-width="4.55925" stroke-linecap="round"/>
<path d="M1272.97 158.301L1272.97 213.012" stroke="#4A4A4A" stroke-width="18.9524" stroke-linecap="square" stroke-dasharray="2.44 2.44"/>
<path d="M1670.64 97.1356L1721.95 87.2428L1734.65 108.198L1789.68 90.8925" stroke="#333333" stroke-width="9.08576" stroke-linecap="round"/>
<path d="M1719.26 147.911C1715.1 147.219 1703.68 153.392 1698.49 156.565C1708.18 159.335 1723.3 169.258 1729.64 173.874L1733.19 176.382L1735.7 173.874C1742.05 169.258 1757.16 159.335 1766.86 156.565C1761.66 153.392 1750.24 147.219 1746.09 147.911C1741.93 148.603 1737.43 136.083 1735.7 129.737L1732.52 121.199L1729.64 129.737C1727.91 136.083 1723.41 148.603 1719.26 147.911Z" fill="#333333" stroke="#333333" stroke-width="6.92338"/>
<path d="M1779.34 112.454C1787.68 113.785 1788.44 124.657 1787.78 129.927C1788.25 137.416 1782.35 142.755 1779.34 144.488C1769.67 146.984 1742.4 146.726 1734.38 147.661L1734.38 134.968L1735.93 112.454C1746.93 111.899 1771.01 111.123 1779.34 112.454Z" stroke="#333333" stroke-width="9.62021"/>
<path d="M1685.15 112.446C1676.81 113.777 1676.05 124.65 1676.71 129.919C1676.24 137.408 1682.14 142.747 1685.15 144.48C1694.82 146.976 1722.09 146.718 1730.11 147.653L1730.11 134.96L1728.56 112.446C1717.56 111.891 1693.48 111.115 1685.15 112.446Z" stroke="#333333" stroke-width="9.62021"/>
<path d="M1697.51 154.969L1693.87 157.192L1697.97 158.364C1702.58 159.679 1708.61 162.748 1714.37 166.139C1720.1 169.509 1725.41 173.11 1728.54 175.386L1728.55 175.394L1728.56 175.401L1732.11 177.91L1733.4 178.819L1734.52 177.705L1736.92 175.301C1740.06 173.02 1745.32 169.467 1750.97 166.139C1756.74 162.748 1762.77 159.679 1767.37 158.364L1771.47 157.192L1767.83 154.969C1765.19 153.355 1760.97 150.981 1756.86 149.089C1754.81 148.145 1752.75 147.301 1750.9 146.736C1749.13 146.195 1747.28 145.816 1745.78 146.066C1745.76 146.068 1745.31 146.104 1744.36 145.021C1743.49 144.032 1742.57 142.509 1741.67 140.647C1739.88 136.95 1738.35 132.353 1737.51 129.245L1737.48 129.163L1737.45 129.083L1734.27 120.545L1732.42 115.604L1730.74 120.603L1727.87 129.141L1727.85 129.192L1727.84 129.245C1726.99 132.353 1725.47 136.95 1723.68 140.647C1722.77 142.509 1721.85 144.032 1720.99 145.021C1720.03 146.104 1719.58 146.068 1719.57 146.066C1718.07 145.816 1716.21 146.195 1714.44 146.736C1712.6 147.301 1710.53 148.145 1708.48 149.089C1704.37 150.981 1700.15 153.355 1697.51 154.969Z" stroke="white" stroke-width="3.74119"/>
<path d="M1652.52 61.4176L1629.73 257.465L1634.29 270.003L1793.86 280.261L1815.52 50.0195L1652.52 61.4176Z" stroke="#333333" stroke-width="13.6777"/>
<path d="M1337.93 78.5039H1451.91" stroke="#494949" stroke-width="6.83887" stroke-linecap="round"/>
<path d="M1339.07 135.496H1510.04" stroke="#494949" stroke-width="6.83887" stroke-linecap="round"/>
<path d="M1345.91 176.535H1516.88" stroke="#494949" stroke-width="6.83887" stroke-linecap="round"/>
</g>
<g clip-path="url(#clip2_1262_80)">
<rect x="0.511719" y="0.78125" width="606.38" height="253.038" rx="22.7962" fill="#19E3FF"/>
<rect x="-51.9219" y="25.8633" width="679.328" height="202.886" fill="white"/>
<path d="M354.984 45.2461L354.984 209.379" stroke="#494949" stroke-width="4.55925" stroke-linecap="round"/>
<path d="M16.4766 158.086L16.4766 212.797" stroke="#4A4A4A" stroke-width="18.9524" stroke-linecap="square" stroke-dasharray="2.44 2.44"/>
<path d="M414.141 96.913L465.454 87.0201L478.155 107.975L533.187 90.6699" stroke="#333333" stroke-width="9.08576" stroke-linecap="round"/>
<path d="M462.758 147.708C458.604 147.015 447.181 153.189 441.988 156.362C451.681 159.131 466.797 169.055 473.143 173.67L476.693 176.179L479.201 173.67C485.548 169.055 500.664 159.131 510.357 156.362C505.164 153.189 493.741 147.015 489.587 147.708C485.433 148.4 480.932 135.88 479.201 129.534L476.016 120.996L473.143 129.534C471.413 135.88 466.912 148.4 462.758 147.708Z" fill="#333333" stroke="#333333" stroke-width="6.92338"/>
<path d="M522.85 112.239C531.186 113.57 531.946 124.442 531.285 129.712C531.757 137.201 525.858 142.54 522.85 144.273C513.175 146.769 485.906 146.511 477.89 147.446L477.89 134.753L479.435 112.239C490.434 111.684 514.514 110.908 522.85 112.239Z" stroke="#333333" stroke-width="9.62021"/>
<path d="M428.65 112.231C420.314 113.562 419.554 124.435 420.215 129.704C419.743 137.193 425.642 142.532 428.65 144.265C438.325 146.761 465.594 146.503 473.61 147.438L473.61 134.745L472.065 112.231C461.066 111.676 436.986 110.9 428.65 112.231Z" stroke="#333333" stroke-width="9.62021"/>
<path d="M441.013 154.766L437.375 156.989L441.474 158.161C446.079 159.476 452.109 162.545 457.872 165.936C463.598 169.306 468.914 172.907 472.043 175.183L472.054 175.191L472.064 175.198L475.614 177.706L476.901 178.616L478.016 177.501L480.42 175.097C483.564 172.817 488.818 169.264 494.473 165.936C500.236 162.545 506.266 159.476 510.871 158.161L514.97 156.989L511.332 154.766C508.691 153.152 504.472 150.778 500.365 148.886C498.313 147.942 496.249 147.098 494.401 146.533C492.631 145.991 490.777 145.613 489.279 145.863C489.264 145.865 488.812 145.901 487.86 144.818C486.991 143.829 486.071 142.305 485.168 140.444C483.376 136.747 481.854 132.15 481.006 129.042L480.984 128.96L480.954 128.88L477.768 120.342L475.925 115.401L474.243 120.4L471.371 128.937L471.353 128.989L471.339 129.042C470.491 132.15 468.969 136.747 467.177 140.444C466.274 142.305 465.354 143.829 464.485 144.818C463.533 145.901 463.081 145.865 463.066 145.863C461.568 145.613 459.714 145.991 457.944 146.533C456.096 147.098 454.031 147.942 451.98 148.886C447.873 150.778 443.654 153.152 441.013 154.766Z" stroke="white" stroke-width="3.74119"/>
<path d="M396.027 61.195L373.23 257.243L377.79 269.78L537.363 280.039L559.02 49.7969L396.027 61.195Z" stroke="#333333" stroke-width="13.6777"/>
<path d="M81.4453 78.2969H195.426" stroke="#494949" stroke-width="6.83887" stroke-linecap="round"/>
<path d="M82.582 135.277H253.554" stroke="#494949" stroke-width="6.83887" stroke-linecap="round"/>
<path d="M89.4102 176.324H260.382" stroke="#494949" stroke-width="6.83887" stroke-linecap="round"/>
</g>
<defs>
<clipPath id="clip0_1262_80">
<rect x="629" y="1" width="606.38" height="253.038" rx="22.7962" fill="white"/>
</clipPath>
<clipPath id="clip1_1262_80">
<rect x="1257" y="1" width="606.38" height="253.038" rx="22.7962" fill="white"/>
</clipPath>
<clipPath id="clip2_1262_80">
<rect x="0.511719" y="0.78125" width="606.38" height="253.038" rx="22.7962" fill="white"/>
</clipPath>
</defs>
</svg>
